<?xml version="1.0" encoding="UTF-8" standalone="no"?>
<!DOCTYPE svg PUBLIC "-//W3C//DTD SVG 1.1//EN" "http://www.w3.org/Graphics/SVG/1.1/DTD/svg11.dtd">
<svg version="1.1" xmlns="http://www.w3.org/2000/svg" xmlns:xlink="http://www.w3.org/1999/xlink" preserveAspectRatio="xMidYMid meet" viewBox="0 0 640 640" width="640" height="640"><defs><path d="M620.87 79.75C619.18 78.06 614.15 73.03 607.66 66.54C590.98 49.86 564.61 23.49 560.25 19.13C547.92 6.79 531.52 0 514.08 0C496.63 0 480.24 6.79 467.9 19.13C466.84 20.19 461.54 25.49 452.01 35.03L440.25 23.27L351.35 112.18L363.1 123.93L56.41 430.62L0 640L209.38 583.59L516.07 276.9L527.82 288.65L616.73 199.75L604.98 188C614.51 178.46 619.81 173.16 620.87 172.1C633.21 159.76 640 143.37 640 125.93C640 108.48 633.21 92.09 620.87 79.75ZM392.61 153.44L424.83 185.66C261.7 348.79 171.08 439.42 152.95 457.54C148.65 461.85 142.93 464.22 136.84 464.22C130.76 464.22 125.03 461.85 120.73 457.54C111.85 448.66 111.84 434.21 120.72 425.32C156.97 389.07 247.6 298.44 392.61 153.44ZM65.2 558.4L81.6 574.8L59.16 580.85L65.2 558.4ZM77.73 511.91C82.7 493.45 85.46 483.19 86.01 481.14C87.61 483.19 89.34 485.17 91.22 487.05C102.77 498.6 117.93 505.22 134.15 505.88C134.8 521.48 141.07 536.9 152.95 548.78C154.83 550.66 156.81 552.39 158.86 553.99C156.81 554.54 146.55 557.3 128.09 562.27L77.73 511.91ZM182.46 519.27C173.58 510.39 173.58 495.94 182.46 487.05C182.46 487.05 182.46 487.05 182.46 487.05C200.58 468.92 291.21 378.3 454.34 215.17L486.57 247.39L214.68 519.28C199.12 525.2 188.38 525.19 182.46 519.27ZM410.36 112.18L440.25 82.29L557.71 199.75L527.82 229.64L410.36 112.18ZM575.47 158.49L481.51 64.53C491.05 54.99 496.35 49.69 497.41 48.63C501.86 44.18 507.78 41.73 514.07 41.73C520.37 41.73 526.29 44.18 530.74 48.63C536.8 54.7 585.3 103.2 591.37 109.26C595.82 113.71 598.27 119.63 598.27 125.92C598.27 132.22 595.82 138.14 591.37 142.59C589.25 144.71 583.95 150.01 575.47 158.49Z" id="a2qGFUDPGk"></path></defs><g><g><g><use xlink:href="#a2qGFUDPGk" opacity="1" fill="#ffffff" fill-opacity="1"></use><g><use xlink:href="#a2qGFUDPGk" opacity="1" fill-opacity="0" stroke="#000000" stroke-width="0" stroke-opacity="0"></use></g></g></g></g></svg>